# xmcd
#
# Track frame offsets:
#	150
#	15676
#	27689
#	39238
#	51102
#	73417
#	88278
#	96997
#	110224
#	122213
#	135028
#	148105
#	162121
#	173965
#	185837
#	201139
#	214219
#	226752
#	242117
#	257250
#	269455
#	282581
#	294163
#	304262
#	316516
#	331072
#
# Disc length: 4560 seconds
#
# Revision: 1
# Processed by: cddbd v1.5.2PL0 Copyright (c) Steve Scherf et al.
# Submitted via: audiograbber 1.83.01
#
DISCID=8611ce1a
DTITLE=Various Artist - Blues, Blues Christmas (Volume 1: 1925-1955)
DYEAR=2009
DGENRE=Holiday
TTITLE0=Frankie "Half Pint" Jaxon - Christ Was Born On Christmas Morn
TTITLE1=Titus Turner - Christmas Morning Blues
TTITLE2=The Cats and The Fiddle - Hep Cat's Holiday
TTITLE3=Ralph Willis - Christmas Blues
TTITLE4=Willie Blackwell - Junior's A Jap Girl's Christmas For His Santa Claus
TTITLE5=Butterbeans and Susie - Papa Ain't No Santa Claus
TTITLE6=Jimmy Butler - Trim Your Tree
TTITLE7=Gatemouth Moore - Christmas Blues
TTITLE8=Harry Crafton with Doc Bagby Orchestra - Bring That Cadillac Back
TTITLE9=Bertha "Chippie" Hill - Chirstmas Man Blues
TTITLE10=Cecil Gant - Hello Santa Claus
TTITLE11=Bumble Bee Slim - Christmas And No Santa Claus
TTITLE12=Felix Gross - Love For Christmas
TTITLE13=Lonnie Jackson - Happy New Year Darling
TTITLE14=Tampa Red - Christmas and New Year's Blues
TTITLE15=Amos Milburn - Let's Make Christmas Merry, Baby
TTITLE16=Julie Lee and her Boyfriends - Christmas Spirit
TTITLE17=Bessie Smith - At The Christmas Ball
TTITLE18=Rev. A. W. Nix - How Will You Spend Christmas
TTITLE19=Harmon Ray - Xmas Blues
TTITLE20=Jimmy Witherspoon - How I Hate To See Xmas Come Around
TTITLE21=Joe Turner with Pete Johnson and his Orchestra - Christmas Date Boogie
TTITLE22=Sugar Chile Robinson - Christmas Boogie
TTITLE23=Leadbelly - The Christmas Song
TTITLE24=Lightnin' Hopkins - Happy New Year
TTITLE25=Rev. Edward Clayborn - The Wrong Way to Celebrate Xmas
EXTD=
EXTT0=
EXTT1=
EXTT2=
EXTT3=
EXTT4=
EXTT5=
EXTT6=
EXTT7=
EXTT8=
EXTT9=
EXTT10=
EXTT11=
EXTT12=
EXTT13=
EXTT14=
EXTT15=
EXTT16=
EXTT17=
EXTT18=
EXTT19=
EXTT20=
EXTT21=
EXTT22=
EXTT23=
EXTT24=
EXTT25=
PLAYORDER=
